<svg width="48" height="48" viewBox="0 0 48 48" fill="none" xmlns="http://www.w3.org/2000/svg">
<path d="M23.5714 0C36.5887 0 47.1429 10.5541 47.1429 23.5714C47.1429 36.5887 36.5887 47.1429 23.5714 47.1429C10.5541 47.1429 0 36.5887 0 23.5714C0 10.5541 10.5541 0 23.5714 0ZM23.5714 2.94643C12.1805 2.94643 2.94643 12.1805 2.94643 23.5714C2.94643 34.9623 12.1805 44.1964 23.5714 44.1964C34.9623 44.1964 44.1964 34.9623 44.1964 23.5714C44.1964 12.1805 34.9623 2.94643 23.5714 2.94643ZM23.5714 11.7857C23.9621 11.7857 24.3369 11.9409 24.6131 12.2172C24.8894 12.4935 25.0446 12.8682 25.0446 13.2589V22.0982H33.8839C34.2746 22.0982 34.6494 22.2534 34.9256 22.5297C35.2019 22.806 35.3571 23.1807 35.3571 23.5714C35.3571 23.9621 35.2019 24.3369 34.9256 24.6131C34.6494 24.8894 34.2746 25.0446 33.8839 25.0446H25.0446V33.8839C25.0446 34.2746 24.8894 34.6494 24.6131 34.9256C24.3369 35.2019 23.9621 35.3571 23.5714 35.3571C23.1807 35.3571 22.806 35.2019 22.5297 34.9256C22.2534 34.6494 22.0982 34.2746 22.0982 33.8839V25.0446H13.2589C12.8682 25.0446 12.4935 24.8894 12.2172 24.6131C11.9409 24.3369 11.7857 23.9621 11.7857 23.5714C11.7857 23.1807 11.9409 22.806 12.2172 22.5297C12.4935 22.2534 12.8682 22.0982 13.2589 22.0982H22.0982V13.2589C22.0982 12.8682 22.2534 12.4935 22.5297 12.2172C22.806 11.9409 23.1807 11.7857 23.5714 11.7857V11.7857Z" fill="white"/>
</svg>
